<svg xmlns="http://www.w3.org/2000/svg" width="37" height="37" viewBox="0 0 37 37">
  <g id="twitter_2_" data-name="twitter (2)" transform="translate(0.5 0.5)">
    <rect id="Rectangle_1664" data-name="Rectangle 1664" width="36" height="36" rx="14" fill="none" stroke="#fff" stroke-width="1" opacity="0.54"/>
    <g id="linkedin_2_" data-name="linkedin (2)" transform="translate(10.632 10.777)">
      <g id="Group_10058" data-name="Group 10058" transform="translate(0 4.157)">
        <g id="Group_10057" data-name="Group 10057">
          <rect id="Rectangle_2192" data-name="Rectangle 2192" width="3.259" height="10.019" fill="#fff"/>
        </g>
      </g>
      <g id="Group_10060" data-name="Group 10060" transform="translate(4.554 4.157)">
        <g id="Group_10059" data-name="Group 10059">
          <path id="Path_8229" data-name="Path 8229" d="M167.582,160.117l-.1-.033a1.154,1.154,0,0,0-.132-.025,2.919,2.919,0,0,0-.585-.059,4.528,4.528,0,0,0-3.5,1.916V160H160v10.019h3.259v-5.465s2.463-3.43,3.5-.911v6.376h3.258v-6.761a3.25,3.25,0,0,0-2.435-3.141Z" transform="translate(-160 -160)" fill="#fff"/>
        </g>
      </g>
      <g id="Group_10062" data-name="Group 10062" transform="translate(0.368)">
        <g id="Group_10061" data-name="Group 10061">
          <circle id="Ellipse_142" data-name="Ellipse 142" cx="1.5" cy="1.5" r="1.5" transform="translate(0 0.223)" fill="#fff"/>
        </g>
      </g>
    </g>
  </g>
</svg>
