<svg xmlns="http://www.w3.org/2000/svg" width="21.409" height="26.738" viewBox="0 0 21.409 26.738">
  <g id="Profile" transform="translate(0.75 0.75)">
    <circle id="Ellipse_736" cx="6.273" cy="6.273" r="6.273" transform="translate(3.677 0)" fill="none" stroke="#fff" stroke-linecap="round" stroke-linejoin="round" stroke-miterlimit="10" stroke-width="1.5"/>
    <path id="Path_33945" d="M0,3.96A2.908,2.908,0,0,1,.288,2.686c.6-1.2,2.3-1.839,3.7-2.127A22.04,22.04,0,0,1,7.066.126a32.892,32.892,0,0,1,5.756,0A22.292,22.292,0,0,1,15.9.559c1.406.288,3.1.865,3.7,2.127a2.98,2.98,0,0,1,0,2.56c-.6,1.262-2.3,1.839-3.7,2.115a20.634,20.634,0,0,1-3.076.445,33.9,33.9,0,0,1-4.687.072,5.338,5.338,0,0,1-1.07-.072A20.25,20.25,0,0,1,4,7.361C2.584,7.084.9,6.507.288,5.246A2.992,2.992,0,0,1,0,3.96Z" transform="translate(0 17.311)" fill="none" stroke="#fff" stroke-linecap="round" stroke-linejoin="round" stroke-miterlimit="10" stroke-width="1.5"/>
  </g>
</svg>
