<svg xmlns="http://www.w3.org/2000/svg" width="37" height="37" viewBox="0 0 37 37">
  <g id="twitter_2_" data-name="twitter (2)" transform="translate(0.5 0.5)">
    <rect id="Rectangle_1664" data-name="Rectangle 1664" width="36" height="36" rx="14" fill="none" stroke="#fff" stroke-width="1" opacity="0.54"/>
    <path id="Path_22322" data-name="Path 22322" d="M60.359,108.282a10.067,10.067,0,0,0,15.413-8.394q0-.2-.008-.408a7.847,7.847,0,0,0,1.746-1.772,8.218,8.218,0,0,1-1.994.512h0a3.7,3.7,0,0,0,1.533-1.934,12.308,12.308,0,0,1-1.711.705c-.165.054-.338.108-.516.157a3.533,3.533,0,0,0-6.1,2.381,3.44,3.44,0,0,0,.091.789A10.666,10.666,0,0,1,61.581,96.7s-1.685,2.274,1,4.612a3.653,3.653,0,0,1-1.522-.449,3.313,3.313,0,0,0,2.786,3.459,3.259,3.259,0,0,1-1.555.064,3.461,3.461,0,0,0,3.239,2.434,6.817,6.817,0,0,1-5.175,1.462Z" transform="translate(-51.27 -85.151)" fill="#fff"/>
  </g>
</svg>
