<svg xmlns="http://www.w3.org/2000/svg" width="44.562" height="28.986" viewBox="0 0 44.562 28.986">
  <g id="Group_101966" data-name="Group 101966" transform="translate(-1410 -479)">
    <g id="Rectangle_26054" data-name="Rectangle 26054" transform="translate(1414.197 479)" fill="none" stroke="#fff" stroke-width="1.5">
      <path d="M2,0H34.1a2,2,0,0,1,2,2V25.6a0,0,0,0,1,0,0H0a0,0,0,0,1,0,0V2A2,2,0,0,1,2,0Z" stroke="none"/>
      <path d="M2,.75H34.1A1.25,1.25,0,0,1,35.348,2V24.855a0,0,0,0,1,0,0H.75a0,0,0,0,1,0,0V2A1.25,1.25,0,0,1,2,.75Z" fill="none"/>
    </g>
    <g id="webinar" transform="translate(1410 479.237)">
      <path id="Path_22589" data-name="Path 22589" d="M5.594-355.883a2.141,2.141,0,0,0-1.15,1.1l-.216.467.018,11.382.027,11.373H.357l-.216.225c-.611.6.054,2.605,1.141,3.468.853.674-.835.62,20.914.62,17.06,0,19.611-.018,20.006-.135a3.482,3.482,0,0,0,2.246-3.117c.045-.557.036-.611-.18-.826l-.234-.234H40.118l.027-8.759.018-8.768-.216-.216a.67.67,0,0,0-1,0l-.225.216V-332l-.225.216-.216.225H6.106l-.216-.225L5.666-332v-22.172l.207-.189.207-.2h8.1c5.741,0,8.157-.027,8.31-.1a.682.682,0,0,0,.2-1.114L22.475-356l-8.292.009C8.038-355.991,5.819-355.955,5.594-355.883Zm37.354,25.8a3.157,3.157,0,0,1-.171.386,1.974,1.974,0,0,1-.934.907c-.359.135-38.935.135-39.294,0a1.974,1.974,0,0,1-.934-.907,3.157,3.157,0,0,1-.171-.386c0-.027,9.343-.045,20.752-.045S42.948-330.109,42.948-330.082Z" transform="translate(0.091 356)" fill="#fff"/>
      <path id="Path_22590" data-name="Path 22590" d="M192.147-286.853c-.147.147-.147.243-.147,5.669v5.529l.192.147a.732.732,0,0,0,.376.155c.177,0,10.159-5.183,10.425-5.411a.567.567,0,0,0,.133-.693c-.147-.265-10.226-5.544-10.579-5.544A.585.585,0,0,0,192.147-286.853Zm5.92,3.944c1.769.929,3.222,1.71,3.222,1.733s-1.4.767-3.111,1.659-3.539,1.843-4.055,2.116l-.944.494v-8.559l.833.435C194.462-284.788,196.291-283.837,198.068-282.908Z" transform="translate(-173.52 294.471)" fill="#fff"/>
    </g>
  </g>
</svg>
