<svg xmlns="http://www.w3.org/2000/svg" width="37" height="37" viewBox="0 0 37 37">
  <g id="twitter_2_" data-name="twitter (2)" transform="translate(0.5 0.5)">
    <rect id="Rectangle_1664" data-name="Rectangle 1664" width="36" height="36" rx="14" fill="none" stroke="#fff" stroke-width="1" opacity="0.54"/>
    <g id="youtube_2_" data-name="youtube (2)" transform="translate(10.57 12.425)">
      <g id="Group_3996" data-name="Group 3996">
        <path id="Path_1172" data-name="Path 1172" d="M14.87,81.029c-.421-.749-.878-.887-1.809-.94S9.793,80,7.767,80s-4.369.026-5.3.088-1.387.19-1.812.941S0,83.066,0,85.336v.008c0,2.26.223,3.558.657,4.3s.882.885,1.811.948,3.269.086,5.3.086,4.364-.032,5.295-.085,1.388-.2,1.809-.948c.438-.741.659-2.039.659-4.3v-.008C15.53,83.066,15.309,81.777,14.87,81.029ZM5.824,88.251V82.427l4.853,2.912Z" transform="translate(0 -80)" fill="#fff"/>
      </g>
    </g>
  </g>
</svg>
